<?xml version="1.0" encoding="utf-8"?>
<!-- Generator: Adobe Illustrator 26.0.3, SVG Export Plug-In . SVG Version: 6.00 Build 0)  -->
<svg version="1.1" id="Layer_1" xmlns="http://www.w3.org/2000/svg" xmlns:xlink="http://www.w3.org/1999/xlink" x="0px" y="0px"
	 viewBox="0 0 149 19.3" style="enable-background:new 0 0 149 19.3;" xml:space="preserve">
<style type="text/css">
	.st0{fill-rule:evenodd;clip-rule:evenodd;fill:#30C4EC;}
	.st1{fill:#44484D;}
	.st2{fill:#6B6F76;}
</style>
<path class="st0" d="M17.2,0H3.1C1.5,0,0.2,1.3,0.2,2.8v13.7c0,1.6,1.3,2.8,2.8,2.8h14.2c1.6,0,2.8-1.3,2.8-2.8V2.8
	C20.1,1.3,18.8,0,17.2,0z M2.4,8.1L6,4.5l3.6,3.7L6,11.8L2.4,8.1z M10.1,15.9l-3.6-3.7l3.7-3.6l3.6,3.7L10.1,15.9z M14.2,11.8
	l-3.6-3.6l3.6-3.7l3.6,3.6L14.2,11.8z"/>
<path class="st1" d="M26.6,5c0,0.3-0.1,0.6-0.3,0.9c-0.4,0.5-1.1,0.5-1.6,0.1c0,0,0,0-0.1-0.1c-0.2-0.2-0.4-0.6-0.4-0.9
	c0-0.3,0.1-0.6,0.3-0.8c0.4-0.5,1.2-0.5,1.6,0c0,0,0,0,0,0C26.5,4.3,26.6,4.7,26.6,5z M26.3,14.4h-1.8V6.8h1.8V14.4z"/>
<path class="st1" d="M34.7,14.4h-1.8v-0.8c-1.2,1.3-3.2,1.3-4.4,0.2c-0.1-0.1-0.2-0.2-0.3-0.4c-0.7-0.8-1-1.7-1-2.8
	c0-1,0.3-2,0.9-2.8c1.1-1.4,3-1.6,4.4-0.5c0.1,0.1,0.3,0.2,0.4,0.4V3.9h1.8L34.7,14.4z M33,10.6c0-0.6-0.2-1.2-0.6-1.6
	c-0.8-0.8-2-0.8-2.8-0.1c0,0,0,0-0.1,0.1c-0.4,0.4-0.5,1-0.5,1.6c0,0.6,0.2,1.1,0.5,1.6c0.3,0.4,0.9,0.7,1.4,0.7
	c0.6,0,1.1-0.2,1.5-0.7C32.8,11.7,33,11.2,33,10.6z"/>
<path class="st1" d="M43.6,10.6c0,1-0.3,2-1,2.8c-1.1,1.4-3,1.6-4.4,0.5c-0.1-0.1-0.2-0.2-0.4-0.3v0.8H36V3.9h1.8v3.7
	c0.6-0.6,1.4-1,2.3-1c1,0,1.9,0.4,2.5,1.2C43.3,8.7,43.6,9.6,43.6,10.6z M41.7,10.6c0-0.6-0.1-1.1-0.5-1.6c-0.4-0.4-0.9-0.7-1.4-0.6
	c-0.6,0-1.1,0.2-1.5,0.6c-0.4,0.4-0.6,1-0.5,1.6c0,0.6,0.2,1.1,0.5,1.6c0.4,0.4,0.9,0.7,1.5,0.7c0.6,0,1.1-0.2,1.5-0.6
	C41.6,11.7,41.8,11.2,41.7,10.6L41.7,10.6z"/>
<g>
	<path class="st2" d="M52.3,10.3c0,2.8-1.7,4.3-3.8,4.3c-2.1,0-3.6-1.7-3.6-4.1c0-2.6,1.6-4.2,3.8-4.2C50.9,6.2,52.3,7.9,52.3,10.3z
		 M46,10.4c0,1.7,0.9,3.3,2.6,3.3c1.7,0,2.6-1.5,2.6-3.4c0-1.6-0.8-3.3-2.6-3.3C46.9,7,46,8.6,46,10.4z"/>
	<path class="st2" d="M53.6,10.4c0-0.7,0-1.3,0-1.8h0.9l0,1.1h0c0.3-0.8,0.9-1.3,1.6-1.3c0.1,0,0.2,0,0.3,0v1c-0.1,0-0.2,0-0.4,0
		c-0.7,0-1.3,0.6-1.4,1.4c0,0.1,0,0.3,0,0.5v3.1h-1V10.4z"/>
	<path class="st2" d="M62.4,8.6c0,0.4,0,0.9,0,1.6v3.4c0,1.3-0.3,2.1-0.8,2.7c-0.6,0.5-1.4,0.7-2.1,0.7c-0.7,0-1.5-0.2-1.9-0.5
		l0.3-0.8c0.4,0.2,1,0.5,1.7,0.5c1.1,0,1.9-0.6,1.9-2v-0.6h0c-0.3,0.5-0.9,1-1.8,1c-1.4,0-2.5-1.2-2.5-2.8c0-2,1.3-3.1,2.6-3.1
		c1,0,1.6,0.5,1.8,1h0l0-0.9H62.4z M61.4,10.9c0-0.2,0-0.3-0.1-0.5c-0.2-0.6-0.7-1.1-1.5-1.1c-1,0-1.7,0.9-1.7,2.2
		c0,1.1,0.6,2.1,1.7,2.1c0.6,0,1.2-0.4,1.5-1.1c0.1-0.2,0.1-0.4,0.1-0.6V10.9z"/>
	<path class="st2" d="M67.4,14.4l-0.1-0.7h0c-0.3,0.5-0.9,0.9-1.8,0.9c-1.2,0-1.8-0.8-1.8-1.7c0-1.4,1.2-2.2,3.5-2.2v-0.1
		c0-0.5-0.1-1.3-1.3-1.3c-0.5,0-1.1,0.2-1.5,0.4L64.1,9c0.5-0.3,1.2-0.5,1.9-0.5c1.8,0,2.2,1.2,2.2,2.4V13c0,0.5,0,1,0.1,1.4H67.4z
		 M67.2,11.4c-1.2,0-2.5,0.2-2.5,1.3c0,0.7,0.5,1,1,1c0.8,0,1.2-0.5,1.4-1c0-0.1,0.1-0.2,0.1-0.3V11.4z"/>
	<path class="st2" d="M69.9,10.1c0-0.6,0-1.1,0-1.6h0.9l0.1,1h0c0.3-0.6,1-1.1,1.9-1.1c0.8,0,2.1,0.5,2.1,2.5v3.5h-1.1V11
		c0-0.9-0.3-1.7-1.3-1.7c-0.7,0-1.2,0.5-1.4,1.1c0,0.1-0.1,0.3-0.1,0.5v3.5h-1.1V10.1z"/>
	<path class="st2" d="M77.8,6.9c0,0.4-0.3,0.6-0.7,0.6c-0.4,0-0.6-0.3-0.6-0.6c0-0.4,0.3-0.7,0.7-0.7C77.5,6.3,77.8,6.6,77.8,6.9z
		 M76.6,14.4V8.6h1.1v5.8H76.6z"/>
	<path class="st2" d="M78.7,13.8l2.6-3.4c0.3-0.3,0.5-0.6,0.8-0.9v0H79V8.6h4.4l0,0.7l-2.6,3.4c-0.2,0.3-0.5,0.6-0.7,0.9v0h3.4v0.8
		h-4.7V13.8z"/>
	<path class="st2" d="M87.8,14.4l-0.1-0.7h0c-0.3,0.5-0.9,0.9-1.8,0.9c-1.2,0-1.8-0.8-1.8-1.7c0-1.4,1.2-2.2,3.5-2.2v-0.1
		c0-0.5-0.1-1.3-1.3-1.3c-0.5,0-1.1,0.2-1.5,0.4L84.5,9c0.5-0.3,1.2-0.5,1.9-0.5c1.8,0,2.2,1.2,2.2,2.4V13c0,0.5,0,1,0.1,1.4H87.8z
		 M87.6,11.4c-1.2,0-2.5,0.2-2.5,1.3c0,0.7,0.5,1,1,1c0.8,0,1.2-0.5,1.4-1c0-0.1,0.1-0.2,0.1-0.3V11.4z"/>
	<path class="st2" d="M91.5,6.9v1.7h1.5v0.8h-1.5v3.1c0,0.7,0.2,1.1,0.8,1.1c0.3,0,0.5,0,0.6-0.1l0,0.8c-0.2,0.1-0.5,0.1-0.9,0.1
		c-0.5,0-0.9-0.2-1.1-0.4c-0.3-0.3-0.4-0.8-0.4-1.5V9.4h-0.9V8.6h0.9V7.2L91.5,6.9z"/>
	<path class="st2" d="M95.4,6.9c0,0.4-0.3,0.6-0.7,0.6c-0.4,0-0.6-0.3-0.6-0.6c0-0.4,0.3-0.7,0.7-0.7C95.2,6.3,95.4,6.6,95.4,6.9z
		 M94.2,14.4V8.6h1.1v5.8H94.2z"/>
	<path class="st2" d="M102.3,11.4c0,2.1-1.5,3.1-2.9,3.1c-1.6,0-2.8-1.2-2.8-3c0-1.9,1.3-3.1,2.9-3.1
		C101.2,8.4,102.3,9.7,102.3,11.4z M97.7,11.5c0,1.3,0.7,2.2,1.8,2.2c1,0,1.8-0.9,1.8-2.3c0-1-0.5-2.2-1.7-2.2
		C98.2,9.2,97.7,10.4,97.7,11.5z"/>
	<path class="st2" d="M103.6,10.1c0-0.6,0-1.1,0-1.6h0.9l0.1,1h0c0.3-0.6,1-1.1,1.9-1.1c0.8,0,2.1,0.5,2.1,2.5v3.5h-1.1V11
		c0-0.9-0.3-1.7-1.3-1.7c-0.7,0-1.2,0.5-1.4,1.1c0,0.1-0.1,0.3-0.1,0.5v3.5h-1.1V10.1z"/>
	<path class="st2" d="M113.5,14.4l-0.1-0.7h0c-0.3,0.5-0.9,0.9-1.8,0.9c-1.2,0-1.8-0.8-1.8-1.7c0-1.4,1.2-2.2,3.5-2.2v-0.1
		c0-0.5-0.1-1.3-1.3-1.3c-0.5,0-1.1,0.2-1.5,0.4L110.3,9c0.5-0.3,1.2-0.5,1.9-0.5c1.8,0,2.2,1.2,2.2,2.4V13c0,0.5,0,1,0.1,1.4H113.5
		z M113.4,11.4c-1.2,0-2.5,0.2-2.5,1.3c0,0.7,0.5,1,1,1c0.8,0,1.2-0.5,1.4-1c0-0.1,0.1-0.2,0.1-0.3V11.4z"/>
	<path class="st2" d="M116.1,5.9h1.1v8.5h-1.1V5.9z"/>
	<path class="st2" d="M127.1,14.1c-0.4,0.2-1.2,0.4-2.1,0.4c-2.3,0-4-1.4-4-4.1c0-2.5,1.7-4.2,4.2-4.2c1,0,1.6,0.2,1.9,0.4l-0.3,0.9
		c-0.4-0.2-1-0.3-1.6-0.3c-1.9,0-3.2,1.2-3.2,3.3c0,2,1.1,3.2,3.1,3.2c0.6,0,1.3-0.1,1.7-0.3L127.1,14.1z"/>
	<path class="st2" d="M128.4,5.9h1.1v3.6h0c0.2-0.3,0.4-0.6,0.8-0.7c0.3-0.2,0.7-0.3,1.1-0.3c0.8,0,2,0.5,2,2.5v3.5h-1.1V11
		c0-0.9-0.3-1.7-1.3-1.7c-0.7,0-1.2,0.5-1.4,1.1c-0.1,0.1-0.1,0.3-0.1,0.5v3.5h-1.1V5.9z"/>
	<path class="st2" d="M138.3,14.4l-0.1-0.7h0c-0.3,0.5-0.9,0.9-1.8,0.9c-1.2,0-1.8-0.8-1.8-1.7c0-1.4,1.2-2.2,3.5-2.2v-0.1
		c0-0.5-0.1-1.3-1.3-1.3c-0.5,0-1.1,0.2-1.5,0.4L135,9c0.5-0.3,1.2-0.5,1.9-0.5c1.8,0,2.2,1.2,2.2,2.4V13c0,0.5,0,1,0.1,1.4H138.3z
		 M138.1,11.4c-1.2,0-2.5,0.2-2.5,1.3c0,0.7,0.5,1,1,1c0.8,0,1.2-0.5,1.4-1c0-0.1,0.1-0.2,0.1-0.3V11.4z"/>
	<path class="st2" d="M140.9,10.4c0-0.7,0-1.3,0-1.8h0.9l0,1.1h0c0.3-0.8,0.9-1.3,1.6-1.3c0.1,0,0.2,0,0.3,0v1c-0.1,0-0.2,0-0.4,0
		c-0.7,0-1.3,0.6-1.4,1.4c0,0.1,0,0.3,0,0.5v3.1h-1V10.4z"/>
	<path class="st2" d="M146.3,6.9v1.7h1.5v0.8h-1.5v3.1c0,0.7,0.2,1.1,0.8,1.1c0.3,0,0.5,0,0.6-0.1l0,0.8c-0.2,0.1-0.5,0.1-0.9,0.1
		c-0.5,0-0.9-0.2-1.1-0.4c-0.3-0.3-0.4-0.8-0.4-1.5V9.4h-0.9V8.6h0.9V7.2L146.3,6.9z"/>
</g>
</svg>
